IKResults
version=1
nRows=38
nColumns=24
inDegrees=yes

Units are S.I. units (second, meters, Newtons, ...)
If the header above contains a line with 'inDegrees', this indicates whether rotational values are in degrees (yes) or radians (no).

endheader
time	pelvis_tilt	pelvis_list	pelvis_rotation	pelvis_tx	pelvis_ty	pelvis_tz	hip_flexion_r	hip_adduction_r	hip_rotation_r	knee_angle_r	ankle_angle_r	subtalar_angle_r	mtp_angle_r	hip_flexion_l	hip_adduction_l	hip_rotation_l	knee_angle_l	ankle_angle_l	subtalar_angle_l	mtp_angle_l	lumbar_extension	lumbar_bending	lumbar_rotation
3.200000	9.348333	1.754316	-180.822793	0.242452	0.854793	-1.220590	17.778013	-9.485031	-32.408400	-13.452227	-0.026315	11.307043	0.000000	18.059381	-14.063328	-31.924860	-13.807412	0.233092	9.652756	0.000000	1.162624	0.995567	2.607570
3.205000	9.345178	1.755846	-180.821060	0.242504	0.854771	-1.220654	17.781379	-9.483219	-32.406198	-13.459828	-0.027241	11.306292	0.000000	18.057078	-14.068231	-31.926001	-13.800526	0.232850	9.651636	0.000000	1.160542	0.987321	2.603343
3.210000	9.368662	1.769739	-180.865937	0.242398	0.854808	-1.220560	17.819155	-9.474675	-32.404141	-13.486373	-0.030701	11.305591	0.000000	18.032884	-14.068088	-31.946727	-13.721325	0.243711	9.649560	0.000000	1.198262	1.039875	2.605295
3.215000	9.405644	1.762456	-180.891543	0.242504	0.854793	-1.220626	17.892253	-9.481107	-32.375486	-13.529682	-0.023175	11.305951	0.000000	18.071883	-14.081268	-31.944074	-13.751931	0.192611	9.652114	0.000000	1.238336	1.028033	2.654762
3.220000	9.404317	1.768438	-180.880535	0.242524	0.854754	-1.220643	17.889845	-9.478279	-32.371169	-13.532252	-0.014960	11.302038	0.000000	18.083067	-14.075207	-31.978143	-13.746628	0.206766	9.624976	0.000000	1.241822	1.036205	2.626558
3.225000	9.402668	1.769983	-180.870587	0.242588	0.854686	-1.220742	17.887430	-9.475292	-32.365129	-13.531659	-0.013798	11.304146	0.000000	18.090116	-14.084551	-31.974591	-13.734452	0.211835	9.626576	0.000000	1.236310	1.019719	2.621500
3.230000	9.355677	1.752968	-180.786825	0.242696	0.854678	-1.220859	17.821482	-9.494290	-32.370328	-13.516781	0.022659	11.265130	0.000000	18.088498	-14.062463	-31.883070	-13.768529	0.256154	9.681051	0.000000	1.171276	0.968213	2.500436
3.235000	9.351739	1.757634	-180.769694	0.242724	0.854662	-1.220899	17.819540	-9.491288	-32.369188	-13.523549	0.021832	11.264194	0.000000	18.089433	-14.066519	-31.884894	-13.763155	0.253323	9.680639	0.000000	1.170620	0.965757	2.500984
3.240000	9.336478	1.764577	-180.742576	0.242740	0.854671	-1.220908	17.803794	-9.492643	-32.405583	-13.534377	0.049806	11.228031	0.000000	18.091597	-14.072302	-31.884866	-13.793598	0.191211	9.665402	0.000000	1.155190	0.972881	2.488151
3.245000	9.347383	1.774627	-180.755522	0.242667	0.854662	-1.220811	17.812500	-9.487245	-32.410336	-13.533637	0.052087	11.225032	0.000000	18.080247	-14.069792	-31.899627	-13.759098	0.188820	9.650509	0.000000	1.179935	1.016937	2.476322
3.250000	9.345161	1.771708	-180.752730	0.242668	0.854689	-1.220840	17.809120	-9.488387	-32.409100	-13.531443	0.050365	11.225309	0.000000	18.078018	-14.067432	-31.896311	-13.763027	0.185350	9.649920	0.000000	1.190280	1.022970	2.470832
3.255000	9.337873	1.779701	-180.696539	0.242714	0.854665	-1.220848	17.773273	-9.481177	-32.428702	-13.492214	0.024936	11.210894	0.000000	18.094291	-14.062520	-31.798829	-13.747400	0.215125	9.682922	0.000000	1.178494	1.028417	2.395303
3.260000	9.314227	1.782027	-180.649589	0.242726	0.854676	-1.220870	17.725281	-9.479721	-32.463427	-13.464125	0.019181	11.200707	0.000000	18.089408	-14.057594	-31.757512	-13.756041	0.227956	9.683024	0.000000	1.149134	1.013903	2.369556
3.265000	9.312540	1.783657	-180.641797	0.242765	0.854675	-1.220861	17.723286	-9.480448	-32.461006	-13.463502	0.020137	11.202073	0.000000	18.094182	-14.056086	-31.756963	-13.753642	0.227481	9.681988	0.000000	1.146781	1.022397	2.369704
3.270000	9.307308	1.798013	-180.631474	0.242796	0.854723	-1.220862	17.712564	-9.463008	-32.484135	-13.454331	0.035153	11.196588	0.000000	18.111150	-14.074944	-31.751374	-13.798555	0.189380	9.657267	0.000000	1.138772	1.036096	2.375392
3.275000	9.301844	1.841612	-180.604773	0.242811	0.854740	-1.220877	17.687179	-9.417088	-32.531656	-13.429787	0.038434	11.199406	0.000000	18.122442	-14.112000	-31.680256	-13.802243	0.186669	9.607074	0.000000	1.132252	1.086403	2.341870
3.280000	9.300201	1.828168	-180.586954	0.242858	0.854735	-1.220885	17.673433	-9.428925	-32.536363	-13.404978	0.031938	11.202009	0.000000	18.133014	-14.094166	-31.669469	-13.810355	0.190506	9.600194	0.000000	1.134766	1.074462	2.333448
3.285000	9.299644	1.824832	-180.578858	0.242894	0.854730	-1.220878	17.671449	-9.433432	-32.539530	-13.400138	0.031238	11.201400	0.000000	18.137361	-14.086492	-31.666248	-13.812166	0.190580	9.600423	0.000000	1.133583	1.081273	2.335604
3.290000	9.300589	1.815642	-180.548178	0.242918	0.854749	-1.220869	17.664336	-9.448080	-32.580276	-13.390188	0.011095	11.191483	0.000000	18.136039	-14.074344	-31.590697	-13.788426	0.197918	9.660498	0.000000	1.140356	1.074195	2.306095
3.295000	9.300562	1.813289	-180.550147	0.242923	0.854797	-1.220819	17.665108	-9.452211	-32.581687	-13.388541	0.013259	11.190510	0.000000	18.134893	-14.066293	-31.592872	-13.799999	0.191779	9.658615	0.000000	1.142245	1.091326	2.308486
3.300000	9.302170	1.819444	-180.555623	0.242957	0.854823	-1.220795	17.675091	-9.448748	-32.601772	-13.402313	0.017020	11.184049	0.000000	18.149736	-14.080247	-31.617314	-13.822485	0.161029	9.634115	0.000000	1.138822	1.099945	2.337073
3.305000	9.303116	1.820943	-180.551368	0.243007	0.854806	-1.220802	17.676068	-9.446152	-32.601432	-13.401024	0.016380	11.185540	0.000000	18.157614	-14.082851	-31.617997	-13.808688	0.163058	9.634519	0.000000	1.131836	1.098097	2.340685
3.310000	9.300813	1.806096	-180.537346	0.243031	0.854798	-1.220815	17.659260	-9.455952	-32.588986	-13.371699	0.002500	11.199479	0.000000	18.169952	-14.068739	-31.613105	-13.849178	0.162700	9.632001	0.000000	1.135429	1.084013	2.340438
3.315000	9.299586	1.805019	-180.525610	0.243088	0.854751	-1.220864	17.656983	-9.456015	-32.588006	-13.368646	0.000651	11.201021	0.000000	18.180225	-14.070189	-31.614574	-13.839805	0.168061	9.633149	0.000000	1.128078	1.077654	2.341958
3.320000	9.299677	1.805154	-180.521731	0.243130	0.854759	-1.220847	17.658324	-9.457285	-32.588407	-13.365993	0.000314	11.201309	0.000000	18.186305	-14.066134	-31.614515	-13.840025	0.168367	9.634541	0.000000	1.118707	1.081783	2.348175
3.325000	9.257965	1.804735	-180.483602	0.243365	0.854822	-1.221027	17.641450	-9.459375	-32.637354	-13.405350	0.029231	11.155752	0.000000	18.197327	-14.082258	-31.570182	-13.904008	0.113588	9.637851	0.000000	1.036996	1.041294	2.364756
3.330000	9.278679	1.810790	-180.523144	0.243286	0.854815	-1.220921	17.669967	-9.457357	-32.635396	-13.414611	0.016153	11.164062	0.000000	18.190864	-14.076669	-31.585581	-13.871314	0.116725	9.617328	0.000000	1.077461	1.095989	2.386020
3.335000	9.279709	1.804219	-180.519699	0.243386	0.854743	-1.220962	17.675532	-9.462296	-32.626630	-13.408628	0.009511	11.171049	0.000000	18.215313	-14.079017	-31.583939	-13.892025	0.117519	9.613569	0.000000	1.061516	1.088555	2.397794
3.340000	9.261263	1.792283	-180.479130	0.243626	0.854685	-1.221135	17.668280	-9.469582	-32.614930	-13.414897	0.004573	11.169565	0.000000	18.256759	-14.085668	-31.553843	-13.957289	0.115817	9.619067	0.000000	1.003541	1.034977	2.403701
3.345000	9.258019	1.792636	-180.466004	0.243712	0.854676	-1.221161	17.674882	-9.472106	-32.610751	-13.425518	0.006943	11.159987	0.000000	18.278327	-14.090637	-31.546802	-13.984530	0.131378	9.613966	0.000000	0.983612	1.038526	2.383301
3.350000	9.253200	1.801907	-180.467818	0.243777	0.854710	-1.221166	17.687537	-9.465578	-32.608335	-13.451029	0.011335	11.149728	0.000000	18.289963	-14.105023	-31.538528	-14.000190	0.130124	9.612498	0.000000	0.967137	1.052587	2.393198
3.355000	9.256283	1.829985	-180.485431	0.243871	0.854718	-1.221203	17.707616	-9.432091	-32.589685	-13.468075	0.037637	11.129098	0.000000	18.317035	-14.152503	-31.537583	-14.041645	0.134737	9.579654	0.000000	0.955932	1.091668	2.418266
3.360000	9.301270	1.840696	-180.532693	0.243953	0.854664	-1.221148	17.779825	-9.419876	-32.544064	-13.485782	-0.004727	11.136962	0.000000	18.373066	-14.173837	-31.561173	-14.076869	0.158221	9.541699	0.000000	1.002636	1.136096	2.471034
3.365000	9.260920	1.831443	-180.500556	0.244226	0.854602	-1.221286	17.768953	-9.434932	-32.549838	-13.529425	0.035281	11.088492	0.000000	18.399123	-14.187515	-31.500690	-14.164039	0.176207	9.549345	0.000000	0.905793	1.076109	2.496870
3.370000	9.248436	1.828343	-180.499831	0.244349	0.854606	-1.221306	17.777395	-9.443924	-32.528346	-13.556565	0.020992	11.089943	0.000000	18.414257	-14.191946	-31.485850	-14.205539	0.170075	9.544948	0.000000	0.870984	1.078125	2.500660
3.375000	9.311717	1.832055	-180.551285	0.244379	0.854589	-1.221221	17.874701	-9.440261	-32.469092	-13.588244	0.009717	11.072067	0.000000	18.480913	-14.203377	-31.491690	-14.226066	0.168016	9.476910	0.000000	0.940312	1.118698	2.546942
3.380000	9.299740	1.837799	-180.556052	0.244503	0.854630	-1.221226	17.896601	-9.444948	-32.466455	-13.639896	0.010433	11.061160	0.000000	18.497936	-14.219946	-31.481410	-14.263461	0.145008	9.469275	0.000000	0.900103	1.126120	2.572956
3.385000	9.286595	1.839566	-180.559508	0.244628	0.854644	-1.221269	17.912606	-9.449775	-32.453519	-13.683344	0.015981	11.054421	0.000000	18.521528	-14.239583	-31.468508	-14.321481	0.140738	9.456770	0.000000	0.858985	1.121226	2.593106
